<?xml version="1.0" encoding="UTF-8" standalone="no"?>
<!DOCTYPE svg PUBLIC "-//W3C//DTD SVG 1.1//EN" "http://www.w3.org/Graphics/SVG/1.1/DTD/svg11.dtd">
<!-- Generated by Microsoft Visio, SVG Export web.svg Page-1 -->
<svg xmlns="http://www.w3.org/2000/svg" xmlns:xlink="http://www.w3.org/1999/xlink" xmlns:ev="http://www.w3.org/2001/xml-events"
		xmlns:v="http://schemas.microsoft.com/visio/2003/SVGExtensions/" width="8.26772in" height="11.6929in"
		viewBox="0 0 595.276 841.89" xml:space="preserve" color-interpolation-filters="sRGB" class="st8">
	<v:documentProperties v:langID="1033" v:metric="true" v:viewMarkup="false">
		<v:userDefs>
			<v:ud v:nameU="msvSubprocessMaster" v:prompt="" v:val="VT4(Multi proc/doc)"/>
			<v:ud v:nameU="msvNoAutoConnect" v:val="VT0(0):26"/>
		</v:userDefs>
	</v:documentProperties>

	<style type="text/css">
	<![CDATA[
		.st1 {fill:#4672c4;stroke:#c8c8c8;stroke-width:0.25}
		.st2 {fill:#feffff;font-family:Calibri;font-size:0.666664em}
		.st3 {font-size:1em}
		.st4 {marker-end:url(#mrkr4-25);stroke:#4672c4;stroke-linecap:round;stroke-linejoin:round;stroke-width:1}
		.st5 {fill:#4672c4;fill-opacity:1;stroke:#4672c4;stroke-opacity:1;stroke-width:0.28409090909091}
		.st6 {fill:#ffffff;stroke:none;stroke-linecap:butt;stroke-width:7.2}
		.st7 {fill:#3d64ac;font-family:Calibri;font-size:0.666664em}
		.st8 {fill:none;fill-rule:evenodd;font-size:12px;overflow:visible;stroke-linecap:square;stroke-miterlimit:3}
	]]>
	</style>

	<defs id="Markers">
		<g id="lend4">
			<path d="M 2 1 L 0 0 L 2 -1 L 2 1 " style="stroke:none"/>
		</g>
		<marker id="mrkr4-25" class="st5" v:arrowType="4" v:arrowSize="2" v:setback="7.04" refX="-7.04" orient="auto"
				markerUnits="strokeWidth" overflow="visible">
			<use xlink:href="#lend4" transform="scale(-3.52,-3.52) "/>
		</marker>
	</defs>
	<g v:mID="0" v:index="1" v:groupContext="foregroundPage">
		<v:userDefs>
			<v:ud v:nameU="msvThemeOrder" v:val="VT0(0):26"/>
		</v:userDefs>
		<title>Page-1</title>
		<v:pageProperties v:drawingScale="0.0393701" v:pageScale="0.0393701" v:drawingUnits="24" v:shadowOffsetX="4.25197"
				v:shadowOffsetY="-4.25197"/>
		<v:layer v:name="Flowchart" v:index="0"/>
		<v:layer v:name="Connector" v:index="1"/>
		<g id="shape1-1" v:mID="1" v:groupContext="shape" v:layerMember="0" transform="translate(255.118,-473.622)">
			<title>Terminator</title>
			<desc>WebSocket Controller</desc>
			<v:custProps>
				<v:cp v:nameU="Cost" v:lbl="Cost" v:type="7" v:format="@" v:langID="1033"/>
				<v:cp v:nameU="Duration" v:lbl="Duration" v:type="2" v:langID="1033"/>
				<v:cp v:nameU="Resources" v:lbl="Resources" v:langID="1033"/>
			</v:custProps>
			<v:userDefs>
				<v:ud v:nameU="visVersion" v:val="VT0(15):26"/>
			</v:userDefs>
			<v:textBlock v:margins="rect(2,2,2,2)" v:tabSpace="42.5197"/>
			<v:textRect cx="35.4331" cy="816.496" width="70.87" height="50.7874"/>
			<path d="M10.04 841.89 L60.83 841.89 A25.3937 25.3937 -180 0 0 60.83 791.1 L10.04 791.1 A25.3937 25.3937 -180 1 0 10.04
						 841.89 Z" class="st1"/>
			<text x="17" y="814.1" class="st2" v:langID="2052"><v:paragraph v:horizAlign="1"/><v:tabList/>WebSocket<v:newlineChar/><tspan
						x="19.03" dy="1.2em" class="st3">Controller</tspan></text>		</g>
		<g id="shape2-5" v:mID="2" v:groupContext="shape" v:layerMember="0" transform="translate(99.2126,-473.622)">
			<title>Terminator.2</title>
			<desc>Chat Room Controller</desc>
			<v:custProps>
				<v:cp v:nameU="Cost" v:lbl="Cost" v:type="7" v:format="@" v:langID="1033"/>
				<v:cp v:nameU="Duration" v:lbl="Duration" v:type="2" v:langID="1033"/>
				<v:cp v:nameU="Resources" v:lbl="Resources" v:langID="1033"/>
			</v:custProps>
			<v:userDefs>
				<v:ud v:nameU="visVersion" v:val="VT0(15):26"/>
			</v:userDefs>
			<v:textBlock v:margins="rect(2,2,2,2)" v:tabSpace="42.5197"/>
			<v:textRect cx="35.4331" cy="816.496" width="70.87" height="50.7874"/>
			<path d="M10.04 841.89 L60.83 841.89 A25.3937 25.3937 -180 0 0 60.83 791.1 L10.04 791.1 A25.3937 25.3937 -180 1 0 10.04
						 841.89 Z" class="st1"/>
			<text x="17.45" y="814.1" class="st2" v:langID="2052"><v:paragraph v:horizAlign="1"/><v:tabList/>Chat Room<v:newlineChar/><tspan
						x="19.03" dy="1.2em" class="st3">Controller</tspan></text>		</g>
		<g id="shape3-9" v:mID="3" v:groupContext="shape" v:layerMember="0" transform="translate(411.024,-473.622)">
			<title>Terminator.3</title>
			<desc>Other Service Controller</desc>
			<v:custProps>
				<v:cp v:nameU="Cost" v:lbl="Cost" v:type="7" v:format="@" v:langID="1033"/>
				<v:cp v:nameU="Duration" v:lbl="Duration" v:type="2" v:langID="1033"/>
				<v:cp v:nameU="Resources" v:lbl="Resources" v:langID="1033"/>
			</v:custProps>
			<v:userDefs>
				<v:ud v:nameU="visVersion" v:val="VT0(15):26"/>
			</v:userDefs>
			<v:textBlock v:margins="rect(2,2,2,2)" v:tabSpace="42.5197"/>
			<v:textRect cx="35.4331" cy="816.496" width="70.87" height="50.7874"/>
			<path d="M10.04 841.89 L60.83 841.89 A25.3937 25.3937 -180 0 0 60.83 791.1 L10.04 791.1 A25.3937 25.3937 -180 1 0 10.04
						 841.89 Z" class="st1"/>
			<text x="25.96" y="809.3" class="st2" v:langID="2052"><v:paragraph v:horizAlign="1"/><v:tabList/>Other<v:newlineChar/><tspan
						x="23.8" dy="1.2em" class="st3">Service<v:newlineChar/></tspan><tspan x="19.03" dy="1.2em" class="st3">Controller</tspan></text>		</g>
		<g id="shape5-14" v:mID="5" v:groupContext="shape" v:layerMember="0" transform="translate(255.118,-640.748)">
			<title>Terminator.5</title>
			<desc>DAO</desc>
			<v:custProps>
				<v:cp v:nameU="Cost" v:lbl="Cost" v:type="7" v:format="@" v:langID="1033"/>
				<v:cp v:nameU="Duration" v:lbl="Duration" v:type="2" v:langID="1033"/>
				<v:cp v:nameU="Resources" v:lbl="Resources" v:langID="1033"/>
			</v:custProps>
			<v:userDefs>
				<v:ud v:nameU="visVersion" v:val="VT0(15):26"/>
			</v:userDefs>
			<v:textBlock v:margins="rect(2,2,2,2)" v:tabSpace="42.5197"/>
			<v:textRect cx="35.4331" cy="816.496" width="70.87" height="50.7874"/>
			<path d="M10.04 841.89 L60.83 841.89 A25.3937 25.3937 -180 0 0 60.83 791.1 L10.04 791.1 A25.3937 25.3937 -180 1 0 10.04
						 841.89 Z" class="st1"/>
			<text x="28.01" y="818.9" class="st2" v:langID="2052"><v:paragraph v:horizAlign="1"/><v:tabList/>DAO</text>		</g>
		<g id="shape6-17" v:mID="6" v:groupContext="shape" v:layerMember="0" transform="translate(255.118,-732.874)">
			<title>Terminator.6</title>
			<desc>Database</desc>
			<v:custProps>
				<v:cp v:nameU="Cost" v:lbl="Cost" v:type="7" v:format="@" v:langID="1033"/>
				<v:cp v:nameU="Duration" v:lbl="Duration" v:type="2" v:langID="1033"/>
				<v:cp v:nameU="Resources" v:lbl="Resources" v:langID="1033"/>
			</v:custProps>
			<v:userDefs>
				<v:ud v:nameU="visVersion" v:val="VT0(15):26"/>
			</v:userDefs>
			<v:textBlock v:margins="rect(2,2,2,2)" v:tabSpace="42.5197"/>
			<v:textRect cx="35.4331" cy="816.496" width="70.87" height="50.7874"/>
			<path d="M10.04 841.89 L60.83 841.89 A25.3937 25.3937 -180 0 0 60.83 791.1 L10.04 791.1 A25.3937 25.3937 -180 1 0 10.04
						 841.89 Z" class="st1"/>
			<text x="20.23" y="818.9" class="st2" v:langID="2052"><v:paragraph v:horizAlign="1"/><v:tabList/>Database</text>		</g>
		<g id="shape7-20" v:mID="7" v:groupContext="shape" v:layerMember="1" transform="translate(283.465,-691.535)">
			<title>Dynamic connector</title>
			<path d="M7.09 841.89 L7.09 807.59" class="st4"/>
		</g>
		<g id="shape8-26" v:mID="8" v:groupContext="shape" v:layerMember="1" transform="translate(283.465,-524.409)">
			<title>Dynamic connector.8</title>
			<path d="M7.09 841.89 L7.09 732.59" class="st4"/>
		</g>
		<g id="shape9-31" v:mID="9" v:groupContext="shape" v:layerMember="1" transform="translate(134.646,-524.409)">
			<title>Dynamic connector.9</title>
			<path d="M0 841.89 L0 700.16 L98.08 700.16" class="st4"/>
		</g>
		<g id="shape10-36" v:mID="10" v:groupContext="shape" v:layerMember="1" transform="translate(446.457,-524.409)">
			<title>Dynamic connector.10</title>
			<path d="M0 841.89 L0 700.16 L-98.08 700.16" class="st4"/>
		</g>
		<g id="shape11-41" v:mID="11" v:groupContext="shape" v:layerMember="0" transform="translate(255.118,-388.583)">
			<title>Terminator.11</title>
			<desc>Back-End</desc>
			<v:custProps>
				<v:cp v:nameU="Cost" v:lbl="Cost" v:type="7" v:format="@" v:langID="1033"/>
				<v:cp v:nameU="Duration" v:lbl="Duration" v:type="2" v:langID="1033"/>
				<v:cp v:nameU="Resources" v:lbl="Resources" v:langID="1033"/>
			</v:custProps>
			<v:userDefs>
				<v:ud v:nameU="visVersion" v:val="VT0(15):26"/>
			</v:userDefs>
			<v:textBlock v:margins="rect(2,2,2,2)" v:tabSpace="42.5197"/>
			<v:textRect cx="35.4331" cy="816.496" width="70.87" height="50.7874"/>
			<path d="M10.04 841.89 L60.83 841.89 A25.3937 25.3937 -180 0 0 60.83 791.1 L10.04 791.1 A25.3937 25.3937 -180 1 0 10.04
						 841.89 Z" class="st1"/>
			<text x="20.45" y="818.9" class="st2" v:langID="2052"><v:paragraph v:horizAlign="1"/><v:tabList/>Back-End</text>		</g>
		<g id="shape12-44" v:mID="12" v:groupContext="shape" v:layerMember="1" transform="translate(283.465,-439.37)">
			<title>Dynamic connector.12</title>
			<path d="M7.09 841.89 L7.09 814.68" class="st4"/>
		</g>
		<g id="shape13-49" v:mID="13" v:groupContext="shape" v:layerMember="1" transform="translate(283.465,-473.622)">
			<title>Dynamic connector.13</title>
			<path d="M7.09 841.89 L7.09 869.1" class="st4"/>
		</g>
		<g id="shape23-54" v:mID="23" v:groupContext="shape" v:layerMember="0" transform="translate(255.118,-303.543)">
			<title>Terminator.23</title>
			<desc>Front-End</desc>
			<v:custProps>
				<v:cp v:nameU="Cost" v:lbl="Cost" v:type="7" v:format="@" v:langID="1033"/>
				<v:cp v:nameU="Duration" v:lbl="Duration" v:type="2" v:langID="1033"/>
				<v:cp v:nameU="Resources" v:lbl="Resources" v:langID="1033"/>
			</v:custProps>
			<v:userDefs>
				<v:ud v:nameU="visVersion" v:val="VT0(15):26"/>
			</v:userDefs>
			<v:textBlock v:margins="rect(2,2,2,2)" v:tabSpace="42.5197"/>
			<v:textRect cx="35.4331" cy="816.496" width="70.87" height="50.7874"/>
			<path d="M10.04 841.89 L60.83 841.89 A25.3937 25.3937 -180 0 0 60.83 791.1 L10.04 791.1 A25.3937 25.3937 -180 1 0 10.04
						 841.89 Z" class="st1"/>
			<text x="19.27" y="818.9" class="st2" v:langID="2052"><v:paragraph v:horizAlign="1"/><v:tabList/>Front-End</text>		</g>
		<g id="shape24-57" v:mID="24" v:groupContext="shape" v:layerMember="1" transform="translate(283.465,-388.583)">
			<title>Dynamic connector.24</title>
			<path d="M7.09 841.89 L7.09 869.1" class="st4"/>
		</g>
		<g id="shape25-62" v:mID="25" v:groupContext="shape" v:layerMember="1" transform="translate(283.465,-354.331)">
			<title>Dynamic connector.25</title>
			<desc>WebSocket</desc>
			<v:textBlock v:margins="rect(4,4,4,4)" v:tabSpace="42.5197"/>
			<v:textRect cx="7.08661" cy="824.764" width="46.69" height="17.6036"/>
			<path d="M7.09 841.89 L7.09 814.68" class="st4"/>
			<rect v:rectContext="textBkgnd" x="-11.3505" y="819.964" width="36.8745" height="9.59985" class="st6"/>
			<text x="-11.35" y="827.16" class="st7" v:langID="2052"><v:paragraph v:horizAlign="1"/><v:tabList/>WebSocket</text>		</g>
		<g id="shape27-69" v:mID="27" v:groupContext="shape" v:layerMember="1" transform="translate(239.764,-491.929)">
			<title>Dynamic connector.27</title>
			<path d="M0 834.8 L-47.29 834.8" class="st4"/>
		</g>
		<g id="shape28-74" v:mID="28" v:groupContext="shape" v:layerMember="1" transform="translate(341.339,-491.929)">
			<title>Dynamic connector.28</title>
			<path d="M0 834.8 L47.29 834.8" class="st4"/>
		</g>
		<g id="shape29-79" v:mID="29" v:groupContext="shape" v:layerMember="0" transform="translate(255.118,-218.504)">
			<title>Terminator.29</title>
			<desc>WebSocket Service</desc>
			<v:custProps>
				<v:cp v:nameU="Cost" v:lbl="Cost" v:type="7" v:format="@" v:langID="1033"/>
				<v:cp v:nameU="Duration" v:lbl="Duration" v:type="2" v:langID="1033"/>
				<v:cp v:nameU="Resources" v:lbl="Resources" v:langID="1033"/>
			</v:custProps>
			<v:userDefs>
				<v:ud v:nameU="visVersion" v:val="VT0(15):26"/>
			</v:userDefs>
			<v:textBlock v:margins="rect(2,2,2,2)" v:tabSpace="42.5197"/>
			<v:textRect cx="35.4331" cy="816.496" width="70.87" height="50.7874"/>
			<path d="M10.04 841.89 L60.83 841.89 A25.3937 25.3937 -180 0 0 60.83 791.1 L10.04 791.1 A25.3937 25.3937 -180 1 0 10.04
						 841.89 Z" class="st1"/>
			<text x="17" y="814.1" class="st2" v:langID="2052"><v:paragraph v:horizAlign="1"/><v:tabList/>WebSocket<v:newlineChar/><tspan
						x="23.8" dy="1.2em" class="st3">Service</tspan></text>		</g>
		<g id="shape31-83" v:mID="31" v:groupContext="shape" v:layerMember="1" transform="translate(283.465,-269.291)">
			<title>Dynamic connector.31</title>
			<path d="M7.09 841.89 L7.09 814.68" class="st4"/>
		</g>
		<g id="shape32-88" v:mID="32" v:groupContext="shape" v:layerMember="1" transform="translate(283.465,-303.543)">
			<title>Dynamic connector.32</title>
			<path d="M7.09 841.89 L7.09 869.1" class="st4"/>
		</g>
		<g id="shape35-93" v:mID="35" v:groupContext="shape" v:layerMember="0" transform="translate(99.2126,-218.504)">
			<title>Terminator.35</title>
			<desc>Floating Window Service</desc>
			<v:custProps>
				<v:cp v:nameU="Cost" v:lbl="Cost" v:type="7" v:format="@" v:langID="1033"/>
				<v:cp v:nameU="Duration" v:lbl="Duration" v:type="2" v:langID="1033"/>
				<v:cp v:nameU="Resources" v:lbl="Resources" v:langID="1033"/>
			</v:custProps>
			<v:userDefs>
				<v:ud v:nameU="visVersion" v:val="VT0(15):26"/>
			</v:userDefs>
			<v:textBlock v:margins="rect(2,2,2,2)" v:tabSpace="42.5197"/>
			<v:textRect cx="35.4331" cy="816.496" width="70.87" height="50.7874"/>
			<path d="M10.04 841.89 L60.83 841.89 A25.3937 25.3937 -180 0 0 60.83 791.1 L10.04 791.1 A25.3937 25.3937 -180 1 0 10.04
						 841.89 Z" class="st1"/>
			<text x="22.41" y="809.3" class="st2" v:langID="2052"><v:paragraph v:horizAlign="1"/><v:tabList/>Floating<v:newlineChar/><tspan
						x="21.78" dy="1.2em" class="st3">Window<v:newlineChar/></tspan><tspan x="23.8" dy="1.2em" class="st3">Service</tspan></text>		</g>
		<g id="shape36-98" v:mID="36" v:groupContext="shape" v:layerMember="0" transform="translate(255.118,-133.465)">
			<title>Terminator.36</title>
			<desc>Local Data Service</desc>
			<v:custProps>
				<v:cp v:nameU="Cost" v:lbl="Cost" v:type="7" v:format="@" v:langID="1033"/>
				<v:cp v:nameU="Duration" v:lbl="Duration" v:type="2" v:langID="1033"/>
				<v:cp v:nameU="Resources" v:lbl="Resources" v:langID="1033"/>
			</v:custProps>
			<v:userDefs>
				<v:ud v:nameU="visVersion" v:val="VT0(15):26"/>
			</v:userDefs>
			<v:textBlock v:margins="rect(2,2,2,2)" v:tabSpace="42.5197"/>
			<v:textRect cx="35.4331" cy="816.496" width="70.87" height="50.7874"/>
			<path d="M10.04 841.89 L60.83 841.89 A25.3937 25.3937 -180 0 0 60.83 791.1 L10.04 791.1 A25.3937 25.3937 -180 1 0 10.04
						 841.89 Z" class="st1"/>
			<text x="27.12" y="809.3" class="st2" v:langID="2052"><v:paragraph v:horizAlign="1"/><v:tabList/>Local<v:newlineChar/><tspan
						x="27.8" dy="1.2em" class="st3">Data<v:newlineChar/></tspan><tspan x="23.8" dy="1.2em" class="st3">Service</tspan></text>		</g>
		<g id="shape37-103" v:mID="37" v:groupContext="shape" v:layerMember="0" transform="translate(411.024,-218.504)">
			<title>Terminator.37</title>
			<desc>Input Checker Service</desc>
			<v:custProps>
				<v:cp v:nameU="Cost" v:lbl="Cost" v:type="7" v:format="@" v:langID="1033"/>
				<v:cp v:nameU="Duration" v:lbl="Duration" v:type="2" v:langID="1033"/>
				<v:cp v:nameU="Resources" v:lbl="Resources" v:langID="1033"/>
			</v:custProps>
			<v:userDefs>
				<v:ud v:nameU="visVersion" v:val="VT0(15):26"/>
			</v:userDefs>
			<v:textBlock v:margins="rect(2,2,2,2)" v:tabSpace="42.5197"/>
			<v:textRect cx="35.4331" cy="816.496" width="70.87" height="50.7874"/>
			<path d="M10.04 841.89 L60.83 841.89 A25.3937 25.3937 -180 0 0 60.83 791.1 L10.04 791.1 A25.3937 25.3937 -180 1 0 10.04
						 841.89 Z" class="st1"/>
			<text x="26.78" y="809.3" class="st2" v:langID="2052"><v:paragraph v:horizAlign="1"/><v:tabList/>Input<v:newlineChar/><tspan
						x="22.31" dy="1.2em" class="st3">Checker<v:newlineChar/></tspan><tspan x="23.8" dy="1.2em" class="st3">Service</tspan></text>		</g>
		<g id="shape38-108" v:mID="38" v:groupContext="shape" v:layerMember="1" transform="translate(134.646,-218.504)">
			<title>Dynamic connector.38</title>
			<path d="M0 841.89 L0 901.54 L98.08 901.54" class="st4"/>
		</g>
		<g id="shape39-113" v:mID="39" v:groupContext="shape" v:layerMember="1" transform="translate(283.465,-218.504)">
			<title>Dynamic connector.39</title>
			<path d="M7.09 841.89 L7.09 869.1" class="st4"/>
		</g>
		<g id="shape40-118" v:mID="40" v:groupContext="shape" v:layerMember="0" transform="translate(56.6929,-283.465)">
			<title>Terminator.40</title>
			<desc>Window 1</desc>
			<v:custProps>
				<v:cp v:nameU="Cost" v:lbl="Cost" v:type="7" v:format="@" v:langID="1033"/>
				<v:cp v:nameU="Duration" v:lbl="Duration" v:type="2" v:langID="1033"/>
				<v:cp v:nameU="Resources" v:lbl="Resources" v:langID="1033"/>
			</v:custProps>
			<v:userDefs>
				<v:ud v:nameU="visVersion" v:val="VT0(15):26"/>
			</v:userDefs>
			<v:textBlock v:margins="rect(2,2,2,2)" v:tabSpace="42.5197"/>
			<v:textRect cx="35.4331" cy="827.717" width="70.87" height="28.3465"/>
			<path d="M14.17 841.89 L56.69 841.89 A14.1732 14.1732 -180 0 0 56.69 813.54 L14.17 813.54 A14.1732 14.1732 -180 1 0 14.17
						 841.89 Z" class="st1"/>
			<text x="18.85" y="830.12" class="st2" v:langID="2052"><v:paragraph v:horizAlign="1"/><v:tabList/>Window 1</text>		</g>
		<g id="shape41-121" v:mID="41" v:groupContext="shape" v:layerMember="0" transform="translate(134.646,-283.465)">
			<title>Terminator.41</title>
			<desc>Window 2</desc>
			<v:custProps>
				<v:cp v:nameU="Cost" v:lbl="Cost" v:type="7" v:format="@" v:langID="1033"/>
				<v:cp v:nameU="Duration" v:lbl="Duration" v:type="2" v:langID="1033"/>
				<v:cp v:nameU="Resources" v:lbl="Resources" v:langID="1033"/>
			</v:custProps>
			<v:userDefs>
				<v:ud v:nameU="visVersion" v:val="VT0(15):26"/>
			</v:userDefs>
			<v:textBlock v:margins="rect(2,2,2,2)" v:tabSpace="42.5197"/>
			<v:textRect cx="35.4331" cy="827.717" width="70.87" height="28.3465"/>
			<path d="M14.17 841.89 L56.69 841.89 A14.1732 14.1732 -180 0 0 56.69 813.54 L14.17 813.54 A14.1732 14.1732 -180 1 0 14.17
						 841.89 Z" class="st1"/>
			<text x="18.85" y="830.12" class="st2" v:langID="2052"><v:paragraph v:horizAlign="1"/><v:tabList/>Window 2</text>		</g>
		<g id="shape46-124" v:mID="46" v:groupContext="shape" v:layerMember="1" transform="translate(185.433,-236.811)">
			<title>Dynamic connector.46</title>
			<path d="M0 834.8 L47.29 834.8" class="st4"/>
		</g>
		<g id="shape47-129" v:mID="47" v:groupContext="shape" v:layerMember="1" transform="translate(134.646,-269.291)">
			<title>Dynamic connector.47</title>
			<path d="M0 841.89 L0 836.57 L-42.52 836.57 L-42.52 834.76" class="st4"/>
		</g>
		<g id="shape48-134" v:mID="48" v:groupContext="shape" v:layerMember="1" transform="translate(134.646,-269.291)">
			<title>Dynamic connector.48</title>
			<path d="M0 841.89 L0 836.57 L35.43 836.57 L35.43 834.76" class="st4"/>
		</g>
	</g>
</svg>
